{
  "accessors": [
    {
      "bufferView": 0,
      "byteOffset": 0,
      "componentType": 5125,
      "count": 46914,
      "type": "SCALAR"
    },
    {
      "bufferView": 1,
      "byteOffset": 0,
      "componentType": 5126,
      "count": 7801,
      "max": [
        2.49699996948000010000e+02,
        1.65100051880000000000e+02,
        2.60120830536000010000e+01
      ],
      "min": [
        -1.11000045775999990000e+02,
        2.07516649198000000000e-07,
        3.99999785423000010000e+00
      ],
      "type": "VEC3"
    },
    {
      "bufferView": 1,
      "byteOffset": 12,
      "componentType": 5126,
      "count": 7801,
      "type": "VEC3"
    }
  ],
  "asset": {
    "generator": "Wings 3D 2.2.6.1",
    "version": "2.0"
  },
  "bufferViews": [
    {
      "buffer": 0,
      "byteLength": 187656,
      "byteOffset": 0
    },
    {
      "buffer": 0,
      "byteLength": 187224,
      "byteOffset": 187656,
      "byteStride": 24
    }
  ],
  "buffers": [
    {
      "byteLength": 374880,
      "uri": "nobuttons.bin"
    }
  ],
  "materials": [
    {
      "doubleSided": true,
      "emissiveFactor": [
        0.00000000000000000000e+00,
        0.00000000000000000000e+00,
        0.00000000000000000000e+00
      ],
      "name": "default",
      "pbrMetallicRoughness": {
        "baseColorFactor": [
          7.89853807692307730000e-01,
          8.13333333333333350000e-01,
          6.94044444444444460000e-01,
          1.00000000000000000000e+00
        ],
        "metallicFactor": 1.00000000000000010000e-01,
        "roughnessFactor": 8.00000000000000040000e-01
      }
    }
  ],
  "meshes": [
    {
      "name": "STL object",
      "primitives": [
        {
          "attributes": {
            "NORMAL": 2,
            "POSITION": 1
          },
          "indices": 0,
          "material": 0
        }
      ]
    }
  ],
  "nodes": [
    {
      "mesh": 0,
      "name": "STL object"
    }
  ],
  "scene": 0,
  "scenes": [
    {
      "nodes": [
        0
      ]
    }
  ]
}