{"accessors" : [{"bufferView" : 0, "byteOffset" : 0, "componentType" : 5123, "count" : 1572, "type" : "SCALAR", "max" : [1571], "min" : [0]}, {"bufferView" : 1, "byteOffset" : 0, "componentType" : 5126, "count" : 1572, "type" : "VEC3", "max" : [7.820000171661377, 8.164999961853027, -6.905843734741211], "min" : [-7.820000171661377, -8.164999961853027, -12.508853912353516], "name" : "POSITION"}, {"bufferView" : 1, "byteOffset" : 12, "componentType" : 5126, "count" : 1572, "type" : "VEC3", "max" : [1.0000044107437134, 1.0000044107437134, 1.0000044107437134], "min" : [-1.0000044107437134, -1.0000044107437134, -1.0000044107437134], "name" : "NORMAL"}], "asset" : {"generator" : "Aspose.3D 22.3", "version" : "2.0"}, "buffers" : [{"uri" : "data:application/octet-stream;base64,", "byteLength" : 40880}], "bufferViews" : [{"buffer" : 0, "byteOffset" : 0, "byteLength" : 3144, "target" : 34963}, {"buffer" : 0, "byteOffset" : 3148, "byteLength" : 37728, "byteStride" : 24, "target" : 34962}], "meshes" : [{"primitives" : [{"attributes" : {"POSITION" : 1, "NORMAL" : 2}, "indices" : 0, "mode" : 4}], "name" : "\"switch_middle\""}], "nodes" : [{"mesh" : 0, "name" : "\"switch_middle\""}], "scene" : 0, "scenes" : [{"nodes" : [0]}]}