{"accessors" : [{"bufferView" : 0, "byteOffset" : 0, "componentType" : 5123, "count" : 198, "type" : "SCALAR", "max" : [197], "min" : [0]}, {"bufferView" : 1, "byteOffset" : 0, "componentType" : 5126, "count" : 198, "type" : "VEC3", "max" : [3.5999999046325684, 2.7799999713897705, -3], "min" : [-3.5999999046325684, -2.7799999713897705, -6.915247440338135], "name" : "POSITION"}, {"bufferView" : 1, "byteOffset" : 12, "componentType" : 5126, "count" : 198, "type" : "VEC3", "max" : [1.0000044107437134, 1.0000044107437134, 1.0000044107437134], "min" : [-1.0000044107437134, -1.0000044107437134, -1.0000044107437134], "name" : "NORMAL"}], "asset" : {"generator" : "Aspose.3D 22.3", "version" : "2.0"}, "buffers" : [{"uri" : "data:application/octet-stream;base64,", "byteLength" : 5156}], "bufferViews" : [{"buffer" : 0, "byteOffset" : 0, "byteLength" : 396, "target" : 34963}, {"buffer" : 0, "byteOffset" : 400, "byteLength" : 4752, "byteStride" : 24, "target" : 34962}], "meshes" : [{"primitives" : [{"attributes" : {"POSITION" : 1, "NORMAL" : 2}, "indices" : 0, "mode" : 4}], "name" : "\"switch_top\""}], "nodes" : [{"mesh" : 0, "name" : "\"switch_top\""}], "scene" : 0, "scenes" : [{"nodes" : [0]}]}